<svg width="527" height="487" viewBox="0 0 527 487" fill="none" xmlns="http://www.w3.org/2000/svg">
<path d="M22.6616 142.099C22.6616 113 15.5935 69.4744 47.6616 40.5986C76.5374 14.5973 111.5 20.5986 142.162 20.5986" stroke="black" stroke-width="20"/>
<path d="M384.032 21.6301C413.13 21.6301 456.656 14.562 485.532 46.6301C511.533 75.5059 505.532 110.469 505.532 141.13" stroke="black" stroke-width="20"/>
<path d="M504.469 344.032C504.469 373.13 511.537 416.656 479.469 445.532C450.593 471.533 415.63 465.532 384.969 465.532" stroke="black" stroke-width="20"/>
<path d="M142.099 463.5C113 463.5 69.4744 470.568 40.5986 438.5C14.5973 409.624 20.5986 374.662 20.5986 344" stroke="black" stroke-width="20"/>
<path d="M74.1016 139.301C75.5123 139.301 79.7688 139.703 90.4023 141.09C100.332 142.386 106.657 141.777 120.625 142.367C129.006 142.721 143.854 142.488 152.217 142.345C160.579 142.201 162.014 141.913 196.054 140.954C230.094 139.996 296.696 138.374 365.316 136.703" stroke="#36FFF8" stroke-width="60" stroke-linecap="round" stroke-linejoin="round"/>
<path d="M103.44 175L79.08 88.6H97.8L117.96 167.68H112.08L130.08 88.6H151.08L168.84 167.68H163.08L183.36 88.6H201.24L176.88 175H156.24L137.88 97.48H142.68L124.08 175H103.44ZM212.513 175V88.6H230.513V175H212.513ZM255.113 175V137.08C255.113 133.72 254.233 131.2 252.473 129.52C250.793 127.84 248.313 127 245.033 127C242.233 127 239.713 127.64 237.473 128.92C235.313 130.2 233.593 131.96 232.313 134.2C231.113 136.44 230.513 139.08 230.513 142.12L228.953 127.36C230.953 122.88 233.873 119.32 237.713 116.68C241.633 113.96 246.433 112.6 252.113 112.6C258.913 112.6 264.113 114.52 267.713 118.36C271.313 122.12 273.112 127.2 273.112 133.6V175H255.113ZM315.849 176.2C309.129 176.2 303.209 174.88 298.089 172.24C293.049 169.52 289.089 165.76 286.209 160.96C283.409 156.08 282.009 150.48 282.009 144.16C282.009 137.84 283.409 132.32 286.209 127.6C289.089 122.88 293.049 119.2 298.089 116.56C303.209 113.92 309.129 112.6 315.849 112.6C322.649 112.6 328.569 113.92 333.609 116.56C338.729 119.2 342.689 122.88 345.489 127.6C348.289 132.32 349.689 137.84 349.689 144.16C349.689 150.48 348.249 156.08 345.369 160.96C342.569 165.76 338.609 169.52 333.489 172.24C328.449 174.88 322.569 176.2 315.849 176.2ZM315.849 162.04C318.649 162.04 321.169 161.32 323.409 159.88C325.729 158.44 327.569 156.4 328.929 153.76C330.289 151.04 330.969 147.8 330.969 144.04C330.969 138.52 329.489 134.28 326.529 131.32C323.649 128.28 320.089 126.76 315.849 126.76C311.609 126.76 308.009 128.28 305.049 131.32C302.169 134.36 300.729 138.6 300.729 144.04C300.729 147.8 301.409 151.04 302.769 153.76C304.129 156.4 305.929 158.44 308.169 159.88C310.489 161.32 313.049 162.04 315.849 162.04ZM81 295V208.6H109.8L133.8 291.88H123.36L147.36 208.6H176.28V295H158.04V213.76H161.16L137.76 295H118.68L95.52 214.48H98.52V295H81ZM227.947 295C227.467 293.24 227.107 291.36 226.867 289.36C226.707 287.36 226.627 285.04 226.627 282.4H226.147V253.48C226.147 251 225.307 249.08 223.627 247.72C222.027 246.28 219.627 245.56 216.427 245.56C213.387 245.56 210.947 246.08 209.107 247.12C207.347 248.16 206.187 249.68 205.627 251.68H188.467C189.267 246.16 192.107 241.6 196.987 238C201.867 234.4 208.547 232.6 217.027 232.6C225.827 232.6 232.547 234.56 237.187 238.48C241.827 242.4 244.147 248.04 244.147 255.4V282.4C244.147 284.4 244.267 286.44 244.507 288.52C244.827 290.52 245.307 292.68 245.947 295H227.947ZM206.587 296.2C200.507 296.2 195.667 294.68 192.067 291.64C188.467 288.52 186.667 284.4 186.667 279.28C186.667 273.6 188.787 269.04 193.027 265.6C197.347 262.08 203.347 259.8 211.027 258.76L228.907 256.24V266.68L214.027 268.96C210.827 269.44 208.467 270.32 206.947 271.6C205.427 272.88 204.667 274.64 204.667 276.88C204.667 278.88 205.387 280.4 206.827 281.44C208.267 282.48 210.187 283 212.587 283C216.347 283 219.547 282 222.187 280C224.827 277.92 226.147 275.52 226.147 272.8L227.827 282.4C226.067 286.96 223.387 290.4 219.787 292.72C216.187 295.04 211.787 296.2 206.587 296.2ZM299.895 295V281.44L301.095 281.68C300.295 286.08 297.895 289.6 293.895 292.24C289.975 294.88 285.255 296.2 279.735 296.2C274.135 296.2 269.255 294.92 265.095 292.36C261.015 289.72 257.855 286.04 255.615 281.32C253.375 276.6 252.255 271.04 252.255 264.64C252.255 258.16 253.415 252.52 255.735 247.72C258.055 242.92 261.295 239.2 265.455 236.56C269.695 233.92 274.615 232.6 280.215 232.6C286.055 232.6 290.775 233.96 294.375 236.68C298.055 239.4 300.215 243.12 300.855 247.84L299.535 247.96V208.6H317.535V295H299.895ZM285.495 281.8C289.735 281.8 293.175 280.32 295.815 277.36C298.455 274.32 299.775 270 299.775 264.4C299.775 258.8 298.415 254.52 295.695 251.56C293.055 248.52 289.575 247 285.255 247C281.095 247 277.655 248.52 274.935 251.56C272.295 254.6 270.975 258.92 270.975 264.52C270.975 270.12 272.295 274.4 274.935 277.36C277.655 280.32 281.175 281.8 285.495 281.8ZM360.727 296.2C353.927 296.2 348.007 294.88 342.967 292.24C337.927 289.52 334.007 285.76 331.207 280.96C328.487 276.16 327.127 270.64 327.127 264.4C327.127 258.08 328.487 252.56 331.207 247.84C334.007 243.04 337.887 239.32 342.847 236.68C347.807 233.96 353.567 232.6 360.127 232.6C366.447 232.6 371.927 233.88 376.567 236.44C381.207 239 384.807 242.56 387.367 247.12C389.927 251.68 391.207 257.04 391.207 263.2C391.207 264.48 391.167 265.68 391.087 266.8C391.007 267.84 390.887 268.84 390.727 269.8H337.687V257.92H376.207L373.087 260.08C373.087 255.12 371.887 251.48 369.487 249.16C367.167 246.76 363.967 245.56 359.887 245.56C355.167 245.56 351.487 247.16 348.847 250.36C346.287 253.56 345.007 258.36 345.007 264.76C345.007 271 346.287 275.64 348.847 278.68C351.487 281.72 355.407 283.24 360.607 283.24C363.487 283.24 365.967 282.76 368.047 281.8C370.127 280.84 371.687 279.28 372.727 277.12H389.647C387.647 283.04 384.207 287.72 379.327 291.16C374.527 294.52 368.327 296.2 360.727 296.2ZM106.08 415V342.76H77.88V328.6H152.76V342.76H124.56V415H106.08ZM162.825 415V328.6H180.825V415H162.825ZM205.425 415V377.08C205.425 373.72 204.545 371.2 202.785 369.52C201.105 367.84 198.625 367 195.345 367C192.545 367 190.025 367.64 187.785 368.92C185.625 370.2 183.905 371.96 182.625 374.2C181.425 376.44 180.825 379.08 180.825 382.12L179.265 367.36C181.265 362.88 184.185 359.32 188.025 356.68C191.945 353.96 196.745 352.6 202.425 352.6C209.225 352.6 214.425 354.52 218.025 358.36C221.625 362.12 223.425 367.2 223.425 373.6V415H205.425ZM236.419 415V353.8H254.419V415H236.419ZM235.819 345.64V326.2H255.019V345.64H235.819ZM293.131 416.2C284.171 416.2 277.051 414.4 271.771 410.8C266.491 407.2 263.611 402.24 263.131 395.92H279.211C279.611 398.64 280.971 400.72 283.291 402.16C285.691 403.52 288.971 404.2 293.131 404.2C296.891 404.2 299.611 403.68 301.291 402.64C303.051 401.52 303.931 399.96 303.931 397.96C303.931 396.44 303.411 395.28 302.371 394.48C301.411 393.6 299.611 392.88 296.971 392.32L287.131 390.28C279.851 388.76 274.491 386.48 271.051 383.44C267.611 380.32 265.891 376.32 265.891 371.44C265.891 365.52 268.171 360.92 272.731 357.64C277.291 354.28 283.651 352.6 291.811 352.6C299.891 352.6 306.331 354.24 311.131 357.52C315.931 360.72 318.571 365.2 319.051 370.96H302.971C302.651 368.88 301.531 367.32 299.611 366.28C297.691 365.16 294.971 364.6 291.451 364.6C288.251 364.6 285.851 365.08 284.251 366.04C282.731 366.92 281.971 368.2 281.971 369.88C281.971 371.32 282.611 372.48 283.891 373.36C285.171 374.16 287.291 374.88 290.251 375.52L301.291 377.8C307.451 379.08 312.091 381.48 315.211 385C318.411 388.44 320.011 392.52 320.011 397.24C320.011 403.24 317.651 407.92 312.931 411.28C308.291 414.56 301.691 416.2 293.131 416.2ZM341.431 382.12C341.431 378.36 341.911 375.2 342.871 372.64C343.911 370.08 345.231 367.92 346.831 366.16C348.431 364.4 350.111 362.84 351.871 361.48C353.631 360.12 355.311 358.84 356.911 357.64C358.511 356.44 359.791 355.12 360.751 353.68C361.791 352.16 362.311 350.4 362.311 348.4C362.311 345.36 361.271 343.08 359.191 341.56C357.191 339.96 354.391 339.16 350.791 339.16C346.391 339.16 342.751 340.2 339.871 342.28C337.071 344.36 335.351 347.36 334.711 351.28H317.071C317.871 345.92 319.751 341.28 322.711 337.36C325.671 333.44 329.551 330.4 334.351 328.24C339.151 326.08 344.671 325 350.911 325C356.991 325 362.271 325.96 366.751 327.88C371.231 329.8 374.711 332.52 377.191 336.04C379.751 339.48 381.031 343.52 381.031 348.16C381.031 351.44 380.471 354.28 379.351 356.68C378.311 359.08 376.951 361.16 375.271 362.92C373.671 364.6 371.911 366.16 369.991 367.6C368.071 368.96 366.271 370.36 364.591 371.8C362.991 373.16 361.631 374.68 360.511 376.36C359.471 377.96 358.951 379.88 358.951 382.12H341.431ZM340.351 415V395.2H360.151V415H340.351Z" fill="black"/>
</svg>
